<svg width="15" height="15" viewBox="0 0 15 15" fill="none" xmlns="http://www.w3.org/2000/svg">
<path d="M7.5 0C6.01664 0 4.56659 0.439867 3.33323 1.26398C2.09986 2.08809 1.13856 3.25943 0.570907 4.62987C0.00324965 6.00032 -0.145275 7.50832 0.144114 8.96318C0.433503 10.418 1.14781 11.7544 2.1967 12.8033C3.2456 13.8522 4.58197 14.5665 6.03682 14.8559C7.49168 15.1453 8.99968 14.9968 10.3701 14.4291C11.7406 13.8614 12.9119 12.9001 13.736 11.6668C14.5601 10.4334 15 8.98336 15 7.5C14.9979 5.51152 14.2071 3.60509 12.801 2.19902C11.3949 0.79295 9.48848 0.00209987 7.5 0ZM7.5 13.8462C6.24485 13.8462 5.01789 13.474 3.97427 12.7766C2.93065 12.0793 2.11725 11.0882 1.63692 9.92857C1.1566 8.76896 1.03092 7.49296 1.27579 6.26193C1.52066 5.03089 2.12507 3.90012 3.01259 3.01259C3.90012 2.12507 5.0309 1.52065 6.26193 1.27579C7.49296 1.03092 8.76896 1.15659 9.92857 1.63692C11.0882 2.11724 12.0793 2.93065 12.7766 3.97426C13.474 5.01788 13.8462 6.24485 13.8462 7.5C13.8442 9.18252 13.175 10.7956 11.9853 11.9853C10.7956 13.175 9.18252 13.8442 7.5 13.8462ZM8.65385 10.9615C8.65385 11.1145 8.59307 11.2613 8.48487 11.3695C8.37668 11.4777 8.22993 11.5385 8.07692 11.5385C7.77091 11.5385 7.47742 11.4169 7.26103 11.2005C7.04464 10.9841 6.92308 10.6906 6.92308 10.3846V7.5C6.77007 7.5 6.62333 7.43922 6.51513 7.33102C6.40694 7.22283 6.34616 7.07609 6.34616 6.92308C6.34616 6.77007 6.40694 6.62332 6.51513 6.51513C6.62333 6.40694 6.77007 6.34615 6.92308 6.34615C7.2291 6.34615 7.52258 6.46772 7.73897 6.68411C7.95536 6.90049 8.07692 7.19398 8.07692 7.5V10.3846C8.22993 10.3846 8.37668 10.4454 8.48487 10.5536C8.59307 10.6618 8.65385 10.8085 8.65385 10.9615ZM6.34616 4.32692C6.34616 4.15577 6.39691 3.98845 6.492 3.84614C6.58709 3.70383 6.72224 3.59291 6.88037 3.52741C7.0385 3.46191 7.2125 3.44477 7.38037 3.47817C7.54824 3.51156 7.70243 3.59398 7.82346 3.715C7.94449 3.83603 8.02691 3.99023 8.0603 4.15809C8.09369 4.32596 8.07655 4.49996 8.01105 4.65809C7.94555 4.81622 7.83463 4.95137 7.69232 5.04646C7.55001 5.14155 7.3827 5.19231 7.21154 5.19231C6.98203 5.19231 6.76191 5.10113 6.59962 4.93884C6.43733 4.77655 6.34616 4.55644 6.34616 4.32692Z" fill="#94D073"/>
</svg>
