<svg width="50" height="41" viewBox="0 0 50 41" fill="none" xmlns="http://www.w3.org/2000/svg">
<path fill-rule="evenodd" clip-rule="evenodd" d="M20.6451 0.588257H30.0069C34.1915 0.588257 37.5064 0.588257 40.0995 0.940029C42.7678 1.3033 44.9284 2.06662 46.6337 3.78639C48.3367 5.50846 49.0925 7.69036 49.4523 10.385C49.6572 11.9323 49.7414 13.7326 49.7755 15.8179C49.8053 15.9927 49.8084 16.171 49.7847 16.3467C49.8006 17.648 49.8006 19.0551 49.8006 20.5772V20.8347C49.8006 25.0605 49.8006 28.4081 49.4523 31.0268C49.0925 33.7215 48.3367 35.9034 46.6337 37.6254C44.9284 39.3452 42.7678 40.1085 40.0995 40.4718C37.5041 40.8236 34.1915 40.8236 30.0069 40.8236H20.6451C16.4605 40.8236 13.1456 40.8236 10.5524 40.4718C7.88413 40.1085 5.72354 39.3452 4.01829 37.6254C2.31531 35.9034 1.55944 33.7215 1.19972 31.0268C0.851386 28.4058 0.851386 25.0605 0.851386 20.8347V20.5772C0.851386 19.0551 0.851386 17.648 0.867323 16.3467C0.842912 16.1711 0.845216 15.9928 0.874153 15.8179C0.91058 13.7326 0.994818 11.9323 1.19972 10.385C1.55944 7.69036 2.31531 5.50846 4.01829 3.78639C5.72354 2.06662 7.88413 1.3033 10.5524 0.940029C13.1479 0.588257 16.4605 0.588257 20.6451 0.588257ZM4.271 17.832C4.26645 18.724 4.26645 19.6805 4.26645 20.7059C4.26645 25.0904 4.271 28.2035 4.58519 30.5693C4.89254 32.88 5.47082 34.2135 6.43387 35.186C7.39692 36.1586 8.71741 36.7425 11.0078 37.0529C13.3482 37.3702 16.4309 37.3748 20.7726 37.3748H29.8794C34.2211 37.3748 37.306 37.3702 39.6465 37.0529C41.9346 36.7425 43.2551 36.1586 44.2181 35.186C45.1812 34.2135 45.7594 32.88 46.0668 30.567C46.381 28.2035 46.3855 25.0904 46.3855 20.7059C46.3855 19.6805 46.3855 18.724 46.381 17.832H4.271ZM46.3263 14.3832H4.32564C4.37118 13.0336 4.44858 11.8679 4.58519 10.8425C4.89254 8.53185 5.47082 7.19834 6.43387 6.2258C7.39692 5.25325 8.71741 4.66927 11.0078 4.35888C13.3482 4.04159 16.4309 4.037 20.7726 4.037H29.8794C34.2211 4.037 37.306 4.04159 39.6465 4.35888C41.9346 4.66927 43.2551 5.25325 44.2181 6.2258C45.1812 7.19834 45.7594 8.53185 46.0668 10.8448C46.2034 11.8679 46.2808 13.0336 46.3263 14.3832ZM9.95821 29.9025C9.95821 29.4452 10.1381 29.0066 10.4583 28.6832C10.7786 28.3598 11.2129 28.1782 11.6657 28.1782H20.7726C21.2254 28.1782 21.6598 28.3598 21.98 28.6832C22.3002 29.0066 22.4801 29.4452 22.4801 29.9025C22.4801 30.3599 22.3002 30.7985 21.98 31.1219C21.6598 31.4452 21.2254 31.6269 20.7726 31.6269H11.6657C11.2129 31.6269 10.7786 31.4452 10.4583 31.1219C10.1381 30.7985 9.95821 30.3599 9.95821 29.9025ZM24.7568 29.9025C24.7568 29.4452 24.9367 29.0066 25.2569 28.6832C25.5772 28.3598 26.0115 28.1782 26.4643 28.1782H29.8794C30.3323 28.1782 30.7666 28.3598 31.0868 28.6832C31.407 29.0066 31.5869 29.4452 31.5869 29.9025C31.5869 30.3599 31.407 30.7985 31.0868 31.1219C30.7666 31.4452 30.3323 31.6269 29.8794 31.6269H26.4643C26.0115 31.6269 25.5772 31.4452 25.2569 31.1219C24.9367 30.7985 24.7568 30.3599 24.7568 29.9025Z" fill="#F55B4B"/>
</svg>
