<svg width="20" height="17" viewBox="0 0 20 17" fill="none" xmlns="http://www.w3.org/2000/svg">
<path d="M15.2941 6.07843C15.2941 6.23444 15.2321 6.38406 15.1218 6.49438C15.0115 6.60469 14.8619 6.66667 14.7059 6.66667H5.29412C5.13811 6.66667 4.98849 6.60469 4.87817 6.49438C4.76786 6.38406 4.70588 6.23444 4.70588 6.07843C4.70588 5.92242 4.76786 5.7728 4.87817 5.66249C4.98849 5.55217 5.13811 5.4902 5.29412 5.4902H14.7059C14.8619 5.4902 15.0115 5.55217 15.1218 5.66249C15.2321 5.7728 15.2941 5.92242 15.2941 6.07843ZM14.7059 8.62745H5.29412C5.13811 8.62745 4.98849 8.68942 4.87817 8.79974C4.76786 8.91006 4.70588 9.05968 4.70588 9.21569C4.70588 9.3717 4.76786 9.52132 4.87817 9.63163C4.98849 9.74195 5.13811 9.80392 5.29412 9.80392H14.7059C14.8619 9.80392 15.0115 9.74195 15.1218 9.63163C15.2321 9.52132 15.2941 9.3717 15.2941 9.21569C15.2941 9.05968 15.2321 8.91006 15.1218 8.79974C15.0115 8.68942 14.8619 8.62745 14.7059 8.62745ZM20 1.37255V16.2745C19.9999 16.3748 19.9742 16.4733 19.9253 16.5608C19.8764 16.6483 19.8059 16.7219 19.7206 16.7745C19.628 16.8323 19.521 16.8629 19.4118 16.8627C19.3206 16.8628 19.2306 16.8417 19.149 16.801L16.2745 15.3637L13.4 16.801C13.3184 16.8417 13.2285 16.8629 13.1373 16.8629C13.0461 16.8629 12.9561 16.8417 12.8745 16.801L10 15.3637L7.12549 16.801C7.04389 16.8417 6.95394 16.8629 6.86275 16.8629C6.77155 16.8629 6.6816 16.8417 6.6 16.801L3.72549 15.3637L0.85098 16.801C0.761284 16.8458 0.661631 16.8669 0.561482 16.8623C0.461332 16.8578 0.36401 16.8277 0.278754 16.7749C0.193497 16.7222 0.123136 16.6485 0.0743496 16.5609C0.025563 16.4734 -3.0007e-05 16.3748 2.64027e-08 16.2745V1.37255C2.64027e-08 1.00853 0.144608 0.659413 0.40201 0.40201C0.659413 0.144607 1.00853 0 1.37255 0H18.6275C18.9915 0 19.3406 0.144607 19.598 0.40201C19.8554 0.659413 20 1.00853 20 1.37255ZM18.8235 1.37255C18.8235 1.32055 18.8029 1.27067 18.7661 1.2339C18.7293 1.19713 18.6795 1.17647 18.6275 1.17647H1.37255C1.32055 1.17647 1.27067 1.19713 1.2339 1.2339C1.19713 1.27067 1.17647 1.32055 1.17647 1.37255V15.3225L3.46275 14.1794C3.54434 14.1387 3.63429 14.1175 3.72549 14.1175C3.81669 14.1175 3.90664 14.1387 3.98824 14.1794L6.86275 15.6167L9.73726 14.1794C9.81885 14.1387 9.9088 14.1175 10 14.1175C10.0912 14.1175 10.1811 14.1387 10.2627 14.1794L13.1373 15.6167L16.0118 14.1794C16.0934 14.1387 16.1833 14.1175 16.2745 14.1175C16.3657 14.1175 16.4557 14.1387 16.5373 14.1794L18.8235 15.3225V1.37255Z" fill="#CECECE"/>
</svg>
