<svg width="19" height="20" viewBox="0 0 19 20" fill="none" xmlns="http://www.w3.org/2000/svg">
<path fill-rule="evenodd" clip-rule="evenodd" d="M12.1757 10.3714C12.0225 9.93802 11.7387 9.56283 11.3633 9.29746C10.988 9.03209 10.5397 8.88959 10.08 8.88959V8.33398H8.96881V8.88959C8.37939 8.88959 7.81411 9.12373 7.39733 9.54051C6.98055 9.9573 6.7464 10.5226 6.7464 11.112C6.7464 11.7014 6.98055 12.2667 7.39733 12.6835C7.81411 13.1003 8.37939 13.3344 8.96881 13.3344V15.5568C8.48543 15.5568 8.07373 15.2484 7.92039 14.8162C7.89763 14.7455 7.86093 14.68 7.81245 14.6237C7.76397 14.5675 7.70469 14.5215 7.63812 14.4885C7.57155 14.4555 7.49904 14.4362 7.42489 14.4317C7.35073 14.4273 7.27644 14.4377 7.20639 14.4625C7.13634 14.4872 7.07197 14.5258 7.01708 14.5758C6.96219 14.6259 6.9179 14.6865 6.88683 14.7539C6.85575 14.8214 6.83852 14.8944 6.83616 14.9687C6.8338 15.0429 6.84635 15.1169 6.87308 15.1862C7.02633 15.6196 7.31016 15.9948 7.68548 16.2601C8.0608 16.5255 8.50915 16.668 8.96881 16.668V17.2236H10.08V16.668C10.6694 16.668 11.2347 16.4339 11.6515 16.0171C12.0683 15.6003 12.3024 15.035 12.3024 14.4456C12.3024 13.8562 12.0683 13.2909 11.6515 12.8741C11.2347 12.4573 10.6694 12.2232 10.08 12.2232V10.0008C10.3098 10.0007 10.534 10.0719 10.7216 10.2046C10.9093 10.3372 11.0512 10.5248 11.1279 10.7414C11.1769 10.8804 11.2792 10.9941 11.4122 11.0577C11.478 11.0892 11.5494 11.1074 11.6222 11.1112C11.6951 11.1151 11.768 11.1046 11.8368 11.0803C11.9056 11.056 11.969 11.0184 12.0232 10.9696C12.0775 10.9209 12.1216 10.8619 12.1531 10.796C12.1846 10.7302 12.2028 10.6588 12.2067 10.586C12.2105 10.5131 12.2 10.4402 12.1757 10.3714ZM8.96881 10.0008C8.6741 10.0008 8.39146 10.1179 8.18307 10.3263C7.97468 10.5346 7.8576 10.8173 7.8576 11.112C7.8576 11.4067 7.97468 11.6893 8.18307 11.8977C8.39146 12.1061 8.6741 12.2232 8.96881 12.2232V10.0008ZM10.08 15.5568C10.3747 15.5568 10.6574 15.4397 10.8657 15.2313C11.0741 15.023 11.1912 14.7403 11.1912 14.4456C11.1912 14.1509 11.0741 13.8683 10.8657 13.6599C10.6574 13.4515 10.3747 13.3344 10.08 13.3344V15.5568Z" fill="#94D073"/>
<path fill-rule="evenodd" clip-rule="evenodd" d="M3.49777 1.45623C4.86122 0.788955 7.09807 0 9.54606 0C11.9429 0 14.1209 0.756174 15.4771 1.41456L15.5538 1.45179C15.9627 1.65403 16.2927 1.84515 16.525 2.00017L14.4726 5.00042C19.2041 9.83749 22.8588 20 9.54606 20C-3.76672 20 -0.210312 10.0219 4.56231 5.00042L2.52325 2.00017C2.68048 1.89738 2.87995 1.77793 3.11774 1.65125C3.23553 1.58791 3.36221 1.52235 3.49777 1.45623ZM13.1536 4.96041L14.7965 2.55855C13.2686 2.66856 11.4507 3.02747 9.70051 3.53418C8.45041 3.89532 7.06141 3.84032 5.77519 3.60308C5.45107 3.54299 5.12917 3.47146 4.81011 3.38862L5.87686 4.9593C8.16316 5.77326 10.8667 5.77326 13.1536 4.96041ZM5.23514 5.90605C7.91037 6.93947 11.1256 6.93947 13.8009 5.90494C14.9175 7.08209 15.8517 8.4198 16.5722 9.8736C17.3234 11.4059 17.7323 12.9377 17.6656 14.2579C17.6012 15.5318 17.1 16.6203 15.9555 17.4292C14.7626 18.2721 12.7563 18.8888 9.5455 18.8888C6.33134 18.8888 4.31562 18.2826 3.11163 17.4492C1.95876 16.6503 1.4526 15.5769 1.38093 14.3201C1.30593 13.0144 1.70596 11.4904 2.45435 9.94749C3.1683 8.47626 4.1645 7.06003 5.23514 5.90605ZM4.5962 2.17574C5.04068 2.30797 5.50516 2.42298 5.97631 2.51021C7.17086 2.73023 8.36874 2.76245 9.39104 2.46632C10.5824 2.11926 11.7941 1.8463 13.0191 1.64903C11.9968 1.34122 10.8012 1.1112 9.5455 1.1112C7.63145 1.1112 5.8463 1.64514 4.5962 2.17574Z" fill="#94D073"/>
</svg>
