<svg width="20" height="20" viewBox="0 0 20 20" fill="none" xmlns="http://www.w3.org/2000/svg">
<path d="M19.8675 3.97709C19.8144 3.91332 19.7479 3.86202 19.6728 3.8268C19.5976 3.79159 19.5157 3.77334 19.4327 3.77333H4.05633L3.56863 1.08483C3.51337 0.780368 3.35296 0.504973 3.11538 0.306706C2.87781 0.108438 2.57815 -0.000110927 2.26872 8.50628e-08H0.566C0.415887 8.50628e-08 0.271923 0.059632 0.165778 0.165778C0.059632 0.271923 0 0.415887 0 0.566C0 0.716112 0.059632 0.860077 0.165778 0.966222C0.271923 1.07237 0.415887 1.132 0.566 1.132H2.264C2.30867 1.13127 2.35216 1.14642 2.38671 1.17475C2.42126 1.20308 2.44463 1.24276 2.45267 1.28671L4.85911 14.5217C4.93544 14.9439 5.14115 15.3319 5.44775 15.632C5.07752 15.9281 4.80105 16.3252 4.65179 16.7752C4.50253 17.2251 4.48689 17.7087 4.60675 18.1674C4.72661 18.6261 4.97684 19.0402 5.32716 19.3597C5.67748 19.6791 6.11286 19.8902 6.58064 19.9673C7.04841 20.0445 7.52851 19.9844 7.96285 19.7943C8.39718 19.6043 8.76714 19.2925 9.02794 18.8966C9.28874 18.5007 9.42921 18.0376 9.43235 17.5636C9.43549 17.0895 9.30116 16.6247 9.04562 16.2253H13.9717C13.6784 16.6843 13.5462 17.2279 13.5961 17.7704C13.6459 18.3128 13.8749 18.8232 14.2469 19.2211C14.6189 19.619 15.1128 19.8817 15.6507 19.9678C16.1886 20.0539 16.7398 19.9585 17.2175 19.6967C17.6951 19.4348 18.072 19.0214 18.2887 18.5217C18.5054 18.0219 18.5495 17.4642 18.4142 16.9366C18.2789 16.409 17.9717 15.9414 17.5412 15.6076C17.1107 15.2739 16.5814 15.0929 16.0367 15.0933H6.90237C6.68144 15.0934 6.46752 15.0159 6.29788 14.8743C6.12825 14.7328 6.01367 14.5362 5.97413 14.3189L5.63453 12.452H16.8008C17.2868 12.4521 17.7575 12.2817 18.1307 11.9703C18.5039 11.659 18.756 11.2265 18.8431 10.7483L19.9892 4.44027C20.004 4.35886 20.0008 4.2752 19.9798 4.19518C19.9588 4.11515 19.9204 4.04071 19.8675 3.97709ZM8.30133 17.546C8.30133 17.8072 8.22388 18.0625 8.07876 18.2797C7.93364 18.4969 7.72738 18.6662 7.48606 18.7661C7.24474 18.8661 6.9792 18.8922 6.72302 18.8413C6.46683 18.7903 6.23151 18.6645 6.04681 18.4798C5.86211 18.2952 5.73633 18.0598 5.68537 17.8036C5.63442 17.5475 5.66057 17.2819 5.76053 17.0406C5.86049 16.7993 6.02976 16.593 6.24694 16.4479C6.46412 16.3028 6.71946 16.2253 6.98066 16.2253C7.33093 16.2253 7.66684 16.3645 7.91452 16.6121C8.16219 16.8598 8.30133 17.1957 8.30133 17.546ZM17.3573 17.546C17.3573 17.8072 17.2799 18.0625 17.1348 18.2797C16.9896 18.4969 16.7834 18.6662 16.5421 18.7661C16.3007 18.8661 16.0352 18.8922 15.779 18.8413C15.5228 18.7903 15.2875 18.6645 15.1028 18.4798C14.9181 18.2952 14.7923 18.0598 14.7414 17.8036C14.6904 17.5475 14.7166 17.2819 14.8165 17.0406C14.9165 16.7993 15.0858 16.593 15.3029 16.4479C15.5201 16.3028 15.7755 16.2253 16.0367 16.2253C16.3869 16.2253 16.7228 16.3645 16.9705 16.6121C17.2182 16.8598 17.3573 17.1957 17.3573 17.546ZM17.729 10.5455C17.6895 10.7629 17.5749 10.9595 17.4052 11.101C17.2356 11.2425 17.0217 11.32 16.8008 11.32H5.42888L4.26292 4.90533H18.7544L17.729 10.5455Z" fill="#94D073"/>
</svg>
