<svg width="71" height="71" viewBox="0 0 71 71" fill="none" xmlns="http://www.w3.org/2000/svg">
<path d="M0.347592 58.8485C0.337649 58.8684 0.32771 58.8859 0.320254 58.9008C0.295398 58.8834 0.270539 58.866 0.248169 58.851C0.265568 58.8361 0.28297 58.8062 0.297884 58.8062C0.315283 58.8062 0.332678 58.8336 0.347592 58.8485Z" fill="#95CC73"/>
<path d="M66.425 32.857C66.4201 31.1401 66.4176 29.4233 66.4151 27.7064C66.4151 27.5395 66.5021 27.4074 66.6413 27.3028C66.7283 27.238 66.7432 27.1906 66.6487 27.1109C66.3231 26.8343 66.3132 26.3708 66.6587 26.1117C66.8451 25.9721 66.8824 25.8276 66.8824 25.6308C66.8774 24.0883 66.8874 22.5459 66.87 21.0035C66.8675 20.7543 66.9644 20.6646 67.213 20.6073C67.633 20.5076 67.6281 20.4977 67.6281 20.8739C67.6281 22.4911 67.6281 24.1083 67.6256 25.7255C67.6256 25.865 67.6554 25.9721 67.7772 26.0743C68.1351 26.3758 68.1625 26.7072 67.8766 27.0785C67.807 27.1682 67.7325 27.2155 67.8866 27.3352C68.1351 27.527 68.0829 27.841 68.0854 28.0976C68.1053 29.6226 68.0929 31.1501 68.0979 32.6751C68.0979 32.842 68.0506 32.9143 67.8443 32.9068C67.3845 32.8918 66.9246 32.8968 66.4673 32.8943C66.4524 32.8794 66.4375 32.8669 66.4225 32.852L66.425 32.857Z" fill="#95CC73"/>
<path d="M70.8668 20.0415V20.3156C70.663 20.3156 70.5263 20.3829 70.32 20.4875C68.8187 21.1727 67.2502 21.8904 65.6793 22.608C63.3603 23.6346 61.0064 24.6613 58.6525 25.7203C57.5961 26.1987 57.5961 26.2336 57.5961 25.035C57.5961 24.6239 57.6632 24.2825 57.1537 24.0782C55.0036 22.9494 52.8213 21.9577 50.5345 21.1703C48.2478 20.3829 45.9958 19.6652 43.6419 19.1519C41.6286 18.7084 39.6153 18.2623 37.5696 18.1253C36.8861 18.0904 36.205 18.058 35.5563 18.0904C34.9075 18.0555 34.2265 18.0904 33.5429 18.1253C31.4948 18.2623 29.4839 18.7059 27.4706 19.1519C25.1167 19.6652 22.8648 20.3829 20.578 21.1703C18.2912 21.9577 16.1089 22.9494 13.9588 24.0782C13.4468 24.2825 13.5164 24.6264 13.5164 25.035C13.5164 26.2311 13.5164 26.1987 12.46 25.7203C10.1061 24.6613 7.75227 23.6346 5.4332 22.608C3.86478 21.8904 2.29387 21.1703 0.792564 20.4875C0.588744 20.3853 0.452033 20.3156 0.245728 20.3156V20.0415C3.62367 18.1602 6.93201 16.244 10.2752 14.3303C12.9024 12.8252 15.562 11.2853 18.1893 9.78277C21.09 8.1058 23.9211 6.4662 26.8218 4.82411C29.5162 3.28418 32.2802 1.74675 34.9746 0.171934C35.1784 0.0348851 35.3848 0 35.5538 0C35.7228 0 35.9291 0.0348851 36.1329 0.171934C38.8273 1.74425 41.5913 3.28418 44.2857 4.82411C47.1864 6.4662 50.0175 8.10829 52.9182 9.78277C55.5455 11.2878 58.2051 12.8277 60.8324 14.3303C64.1755 16.2465 67.4839 18.1602 70.8618 20.0415H70.8668Z" fill="#95CC73"/>
<path d="M65.5376 38.3862C65.0554 38.3987 64.5757 38.3987 64.0935 38.3987C62.6966 38.4112 61.3021 38.3862 59.9052 38.3862C59.7412 38.3862 59.4354 38.5283 59.4354 38.152C59.4006 38.0822 59.3658 38.0474 59.3311 38.01C58.5456 36.1287 57.7601 34.2823 56.7734 32.5056C56.2911 31.6459 55.7418 30.8835 55.1179 30.2231C54.683 29.7522 54.2157 29.341 53.6987 28.9772C52.6075 28.3667 51.4566 27.8011 50.2735 27.3077C48.5609 26.6499 46.8235 26.1092 45.0637 25.6133C44.4771 25.4489 43.8905 25.2969 43.2914 25.1548C43.2442 25.1424 43.2094 25.1324 43.1746 25.1324C40.7238 24.639 38.1761 24.3799 35.5488 24.3799C31.629 24.3799 27.8757 24.9555 24.3909 26.0145C24.2865 26.0494 24.1672 26.0843 24.0628 26.1192C23.0412 26.473 22.0221 26.8492 21.0129 27.2355C19.7577 27.7538 18.5497 28.3418 17.3989 28.9772C16.8819 29.341 16.4021 29.7646 15.9671 30.2356C15.3457 30.8934 14.8064 31.6459 14.3242 32.5056C13.3399 34.2823 12.5519 36.1287 11.7665 38.01C11.7317 38.0449 11.6969 38.0798 11.672 38.152C11.672 38.5283 11.3564 38.3862 11.1898 38.3862C9.79291 38.3862 8.39848 38.4087 7.00157 38.3987C6.51936 38.3987 6.03964 38.3987 5.55744 38.3862C4.53585 38.3514 3.7504 39.2459 3.85728 40.128C3.98653 41.187 4.18538 42.256 4.43146 43.315C4.54828 43.8557 4.68996 44.4089 4.84158 44.9496C5.07523 45.8093 5.52263 46.0784 6.41497 46.0784H7.57575C7.7398 46.0784 7.91628 46.0086 7.97345 46.1831C8.07784 46.36 7.87899 46.4173 7.80939 46.5244C5.73391 49.2654 5.18211 52.3702 5.75628 55.6519C6.07195 57.4983 6.88226 59.2151 8.21952 60.5806C8.82849 61.2036 9.13422 61.8863 9.07706 62.8033C8.97266 64.4853 9.07705 66.1548 9.04225 67.8367V67.8716C9.05468 68.507 9.32312 69.0128 9.7929 69.4016C9.8277 69.4364 9.85256 69.4713 9.92216 69.5062C10.2751 69.8351 10.6852 69.9996 11.1302 70.0345C11.1998 70.0569 11.2818 70.0569 11.3539 70.0569C13.3374 70.0569 15.3184 70.0569 17.2895 70.022C18.321 70.022 19.1313 69.3393 19.447 68.3749C19.7527 67.5277 19.5763 66.6332 19.6111 65.7411C19.6111 65.2702 19.6807 65.1306 20.1977 65.1306H50.9024C51.4069 65.1306 51.4765 65.2727 51.4765 65.7411C51.5113 66.6357 51.3349 67.5277 51.653 68.3749C51.9587 69.3393 52.779 70.022 53.8006 70.022C55.7717 70.0569 57.7552 70.0569 59.7362 70.0569C59.8182 70.0569 59.8878 70.0569 59.9699 70.0345C60.7081 69.3517 61.414 68.6241 62.0578 67.8691V67.8342C62.023 66.1523 62.1174 64.4828 62.023 62.8008C61.9534 61.8838 62.2566 61.2011 62.8681 60.5781C64.2053 59.2126 65.0156 57.4958 65.3313 55.6494C65.9055 52.3677 65.3661 49.2629 63.2782 46.5219C63.2086 46.4173 63.0073 46.3575 63.1141 46.1806C63.1738 46.0036 63.3478 46.0759 63.5243 46.0759H64.6751C65.5674 46.0759 66.0124 45.8043 66.2485 44.9471C66.4001 44.394 66.5418 43.8408 66.671 43.2876C66.9171 42.241 67.106 41.182 67.2353 40.123C67.3397 39.2409 66.5542 38.3464 65.5351 38.3813L65.5376 38.3862ZM8.1201 46.1831C8.1201 46.1482 8.08529 46.1482 8.08529 46.1482C8.08529 46.1133 8.1201 46.1133 8.1201 46.1133C8.1201 46.1133 8.15489 46.1133 8.15489 46.1482L8.1201 46.1831ZM16.1337 40.2675C16.6855 38.7625 17.3293 37.3272 17.9755 35.892C18.8679 33.9758 20.2275 32.6103 22.2806 31.9176C24.1572 31.3071 26.0711 30.8585 28.0049 30.5521C29.9885 30.2456 31.9695 30.2107 33.9406 30.0338C34.4924 30.0113 35.0318 29.974 35.5488 29.974C36.0658 29.974 36.6051 30.0088 37.1569 30.0338C39.128 30.2107 41.1115 30.2456 43.0926 30.5521C45.0289 30.8585 46.9403 31.3046 48.8169 31.9176C50.87 32.6103 52.2322 33.9758 53.122 35.892C53.7683 37.3272 54.412 38.7625 54.9638 40.2675C55.1975 40.9503 55.2348 40.9503 54.4816 40.9503H16.6084C15.8578 40.9503 15.8926 40.9503 16.1262 40.2675H16.1337ZM17.9532 58.6271C14.61 58.8737 12.7905 56.1328 12.7905 53.9101C12.7682 51.4532 14.8785 48.9589 17.543 49.1931C20.2648 49.0511 22.1762 51.3809 22.3179 53.499C22.5167 56.5813 20.0659 58.4975 17.9532 58.6271ZM53.1618 58.6271C51.0391 58.4975 48.5858 56.5813 48.7846 53.499C48.9263 51.3809 50.8377 49.0536 53.5595 49.1931C56.2216 48.9589 58.3467 51.4507 58.3119 53.9101C58.3119 56.1328 56.5049 58.8737 53.1618 58.6271ZM62.9824 46.1831L62.9476 46.1482C62.9476 46.1133 62.9824 46.1133 62.9824 46.1133C62.9824 46.1133 63.0172 46.1133 63.0172 46.1482C63.0172 46.1482 62.9824 46.1482 62.9824 46.1831Z" fill="#95CC73"/>
<path d="M59.9774 70.0369C60.4223 70.002 60.8225 69.8251 61.1729 69.5086C61.2425 69.4738 61.2773 69.4389 61.3146 69.404C61.772 69.0153 62.0528 68.5094 62.0653 67.874C61.419 68.6265 60.7156 69.3566 59.9774 70.0394V70.0369Z" fill="#95CC73"/>
<path d="M55.1204 25.4837C55.108 26.154 55.108 26.8243 55.108 27.4946V27.517C55.0956 27.811 54.8743 28.0353 54.581 28.0353C54.5114 28.0353 54.4394 28.0228 54.3698 27.988C54.3225 27.9655 54.2753 27.9406 54.2405 27.9182C51.9165 26.7421 49.488 25.8251 47.0248 24.9654C44.9245 24.2353 42.8018 23.8018 40.6666 23.4006C39.6227 23.2112 37.3334 23.129 35.5512 23.119C33.7691 23.1315 31.4798 23.2137 30.4359 23.4006C28.3007 23.7993 26.178 24.2353 24.0777 24.9654C21.6144 25.8251 19.186 26.7421 16.862 27.9182C16.8272 27.9406 16.7799 27.9655 16.7327 27.988C16.6631 28.0228 16.591 28.0353 16.5214 28.0353C16.2281 28.0353 16.0044 27.811 15.9945 27.517V27.4946C15.9945 26.8243 15.9945 26.154 15.9821 25.4837C15.9821 25.3317 16.0168 25.2246 16.0765 25.1423L16.0889 25.1299C16.3698 24.9405 16.6631 24.7661 16.9564 24.6016C21.2043 22.1323 26.1904 20.4976 31.5743 19.9569C31.8203 19.922 32.0788 19.8971 32.3373 19.8747C32.8419 19.8398 33.3465 19.8049 33.8635 19.78C34.2388 19.7675 34.6266 19.7576 35.0143 19.7576C35.1908 19.7451 35.3772 19.7451 35.5537 19.7451C35.7302 19.7451 35.9166 19.7451 36.0931 19.7576C36.4808 19.7576 36.8562 19.77 37.2439 19.78C37.7609 19.8024 38.2655 19.8398 38.7701 19.8747C39.0286 19.8971 39.2747 19.922 39.5332 19.9569C44.9543 20.4976 49.9504 22.1572 54.2231 24.649C54.494 24.791 54.7501 24.943 55.0086 25.1199C55.0782 25.2021 55.1254 25.3193 55.1254 25.4837H55.1204Z" fill="#95CC73"/>
<path d="M8.15492 46.1506L8.12013 46.1855C8.12013 46.1506 8.08533 46.1506 8.08533 46.1506C8.08533 46.1157 8.12013 46.1157 8.12013 46.1157C8.12013 46.1157 8.15492 46.1157 8.15492 46.1506Z" fill="#95CC73"/>
<path d="M63.0172 46.1506C63.0172 46.1506 62.9824 46.1506 62.9824 46.1855L62.9476 46.1506C62.9476 46.1157 62.9824 46.1157 62.9824 46.1157C62.9824 46.1157 63.0172 46.1157 63.0172 46.1506Z" fill="#95CC73"/>
</svg>
