<svg width="47" height="47" viewBox="0 0 47 47" fill="none" xmlns="http://www.w3.org/2000/svg">
<path opacity="0.5" d="M4.5198 38.1805C7.03745 40.7003 11.0924 40.7003 19.2 40.7003H29.95C36.6451 40.6788 40.1947 40.4681 42.4802 38.1805C45 35.6628 45 31.6079 45 23.5003C45 15.3926 45 11.3377 42.4802 8.82009C40.1947 6.53249 36.6451 6.32179 29.95 6.30029H19.2C11.0924 6.30029 7.03745 6.30029 4.5198 8.82009C2 11.3377 2 15.3926 2 23.5003C2 31.6079 2 35.6628 4.5198 38.1805Z" stroke="#94D073" stroke-width="3" stroke-linecap="round"/>
<path d="M17.05 23.4999C17.05 24.0701 16.8235 24.6169 16.4203 25.0201C16.0171 25.4233 15.4702 25.6499 14.9 25.6499C14.3298 25.6499 13.7829 25.4233 13.3797 25.0201C12.9765 24.6169 12.75 24.0701 12.75 23.4999C12.75 22.9296 12.9765 22.3828 13.3797 21.9796C13.7829 21.5764 14.3298 21.3499 14.9 21.3499C15.4702 21.3499 16.0171 21.5764 16.4203 21.9796C16.8235 22.3828 17.05 22.9296 17.05 23.4999ZM25.65 23.4999C25.65 24.0701 25.4235 24.6169 25.0203 25.0201C24.6171 25.4233 24.0702 25.6499 23.5 25.6499C22.9298 25.6499 22.3829 25.4233 21.9797 25.0201C21.5765 24.6169 21.35 24.0701 21.35 23.4999C21.35 22.9296 21.5765 22.3828 21.9797 21.9796C22.3829 21.5764 22.9298 21.3499 23.5 21.3499C24.0702 21.3499 24.6171 21.5764 25.0203 21.9796C25.4235 22.3828 25.65 22.9296 25.65 23.4999Z" fill="#94D073"/>
<path d="M29.9501 2V45" stroke="#94D073" stroke-width="3" stroke-linecap="round"/>
</svg>
