<svg width="55" height="37" viewBox="0 0 55 37" fill="none" xmlns="http://www.w3.org/2000/svg">
<path d="M20.1907 13.9456C20.0345 13.789 19.8489 13.6648 19.6446 13.58C19.4403 13.4952 19.2212 13.4515 19 13.4515C18.7788 13.4515 18.5597 13.4952 18.3554 13.58C18.1511 13.6648 17.9655 13.789 17.8093 13.9456L15.6364 16.1219L13.4635 13.9456C13.1477 13.6298 12.7193 13.4524 12.2727 13.4524C11.8261 13.4524 11.3978 13.6298 11.082 13.9456C10.7662 14.2614 10.5888 14.6898 10.5888 15.1364C10.5888 15.583 10.7662 16.0113 11.082 16.3271L13.2583 18.5L11.082 20.6729C10.7662 20.9887 10.5888 21.417 10.5888 21.8636C10.5888 22.3102 10.7662 22.7386 11.082 23.0544C11.3978 23.3702 11.8261 23.5476 12.2727 23.5476C12.7193 23.5476 13.1477 23.3702 13.4635 23.0544L15.6364 20.8781L17.8093 23.0544C18.1251 23.3702 18.5534 23.5476 19 23.5476C19.4466 23.5476 19.8749 23.3702 20.1907 23.0544C20.5065 22.7386 20.6839 22.3102 20.6839 21.8636C20.6839 21.417 20.5065 20.9887 20.1907 20.6729L18.0145 18.5L20.1907 16.3271C20.3474 16.1709 20.4716 15.9853 20.5564 15.7809C20.6412 15.5766 20.6848 15.3576 20.6848 15.1364C20.6848 14.9151 20.6412 14.6961 20.5564 14.4918C20.4716 14.2875 20.3474 14.1019 20.1907 13.9456ZM31.2638 13.9456C31.5796 13.6298 32.0079 13.4524 32.4545 13.4524C32.9012 13.4524 33.3295 13.6298 33.6453 13.9456C33.9611 14.2614 34.1385 14.6898 34.1385 15.1364C34.1385 15.583 33.9611 16.0113 33.6453 16.3271L31.469 18.5L33.6453 20.6729C33.9611 20.9887 34.1385 21.417 34.1385 21.8636C34.1385 22.3102 33.9611 22.7386 33.6453 23.0544C33.3295 23.3702 32.9012 23.5476 32.4545 23.5476C32.0079 23.5476 31.5796 23.3702 31.2638 23.0544L29.0909 20.8781L26.918 23.0544C26.6022 23.3702 26.1739 23.5476 25.7273 23.5476C25.2807 23.5476 24.8523 23.3702 24.5365 23.0544C24.2207 22.7386 24.0433 22.3102 24.0433 21.8636C24.0433 21.417 24.2207 20.9887 24.5365 20.6729L26.7128 18.5L24.5365 16.3271C24.2207 16.0113 24.0433 15.583 24.0433 15.1364C24.0433 14.6898 24.2207 14.2614 24.5365 13.9456C24.8523 13.6298 25.2807 13.4524 25.7273 13.4524C26.1739 13.4524 26.6022 13.6298 26.918 13.9456L29.0909 16.1219L31.2638 13.9456ZM39.1818 20.1818C38.7358 20.1818 38.308 20.359 37.9926 20.6744C37.6772 20.9898 37.5 21.4176 37.5 21.8636C37.5 22.3097 37.6772 22.7375 37.9926 23.0529C38.308 23.3683 38.7358 23.5455 39.1818 23.5455H45.9091C46.3551 23.5455 46.7829 23.3683 47.0983 23.0529C47.4137 22.7375 47.5909 22.3097 47.5909 21.8636C47.5909 21.4176 47.4137 20.9898 47.0983 20.6744C46.7829 20.359 46.3551 20.1818 45.9091 20.1818H39.1818ZM9.75 0C7.29675 0 4.94397 0.97455 3.20926 2.70926C1.47455 4.44397 0.5 6.79675 0.5 9.25V27.75C0.5 30.2033 1.47455 32.556 3.20926 34.2907C4.94397 36.0254 7.29675 37 9.75 37H45.0682C47.5214 37 49.8742 36.0254 51.6089 34.2907C53.3436 32.556 54.3182 30.2033 54.3182 27.75V9.25C54.3182 6.79675 53.3436 4.44397 51.6089 2.70926C49.8742 0.97455 47.5214 0 45.0682 0H9.75ZM3.86364 9.25C3.86364 6.00073 6.50073 3.36364 9.75 3.36364H45.0682C48.3175 3.36364 50.9545 6.00073 50.9545 9.25V27.75C50.9545 29.3112 50.3344 30.8084 49.2305 31.9123C48.1266 33.0162 46.6293 33.6364 45.0682 33.6364H9.75C8.18884 33.6364 6.69162 33.0162 5.58771 31.9123C4.48381 30.8084 3.86364 29.3112 3.86364 27.75V9.25Z" fill="#94D073"/>
</svg>
